<?xml version="1.0" encoding="UTF-8" standalone="no"?>
<!-- Generator: Adobe Illustrator 15.1.0, SVG Export Plug-In . SVG Version: 6.00 Build 0)  -->
<svg id="svg3073" xmlns:rdf="http://www.w3.org/1999/02/22-rdf-syntax-ns#" xmlns="http://www.w3.org/2000/svg" enable-background="new 0 0 540 122.523" xml:space="preserve" height="122.52" width="122.53" version="1.0" y="0px" x="0px" xmlns:cc="http://creativecommons.org/ns#" xmlns:dc="http://purl.org/dc/elements/1.1/" viewBox="0 0 122.527 122.523"><metadata id="metadata3109"><rdf:RDF><cc:Work rdf:about=""><dc:format>image/svg+xml</dc:format><dc:type rdf:resource="http://purl.org/dc/dcmitype/StillImage"/><dc:title/></cc:Work></rdf:RDF></metadata><g id="g3077" transform="translate(0,-1.3122559e-6)"><path id="path3079" d="m313.19,48.227h-21.257v2.255c6.649,0,7.718,1.425,7.718,9.857v15.201c0,8.431-1.068,9.975-7.718,9.975-5.105-0.712-8.55-3.444-13.3-8.669l-5.462-5.937c7.362-1.308,11.28-5.938,11.28-11.164,0-6.53-5.58-11.518-16.031-11.518h-20.9v2.255c6.649,0,7.718,1.425,7.718,9.857v15.201c0,8.431-1.069,9.975-7.718,9.975v2.256h23.631v-2.256c-6.649,0-7.718-1.544-7.718-9.975v-4.274h2.018l13.182,16.505h34.557c16.981,0,24.344-9.024,24.344-19.832,0-10.806-7.362-19.712-24.344-19.712zm-49.76,19.355v-15.792h4.868c5.343,0,7.719,3.681,7.719,7.956,0,4.157-2.376,7.837-7.719,7.837h-4.868zm50.113,16.508h-0.832c-4.274,0-4.868-1.068-4.868-6.531v-25.769h5.7c12.35,0,14.605,9.024,14.605,16.031,0,7.243-2.256,16.269-14.605,16.269z" fill="#00749a"/><path id="path3081" d="m181.38,71.978,8.194-24.227c2.376-7.006,1.307-9.024-6.293-9.024v-2.376h22.325v2.376c-7.481,0-9.262,1.781-12.231,10.45l-13.54,40.613h-1.543l-12.11-37.17-12.35,37.17h-1.544l-13.19-40.613c-2.85-8.669-4.75-10.45-11.638-10.45v-2.376h26.363v2.376c-7.007,0-8.908,1.662-6.413,9.024l7.956,24.227,11.994-35.627h2.257l11.756,35.627z" fill="#00749a"/><path id="path3083" d="m221.75,89.314c-13.062,0-23.75-9.618-23.75-21.376,0-11.637,10.689-21.257,23.75-21.257,13.063,0,23.75,9.62,23.75,21.257,0,11.758-10.687,21.376-23.75,21.376zm0-38.949c-10.924,0-14.725,9.855-14.725,17.574,0,7.839,3.801,17.576,14.725,17.576,11.045,0,14.845-9.737,14.845-17.576,0-7.719-3.8-17.574-14.845-17.574z" fill="#00749a"/><path id="path3085" d="m366.86,85.396v2.375h-27.19v-2.375c7.957,0,9.382-2.018,9.382-13.895v-18.999c0-11.877-1.425-13.776-9.382-13.776v-2.376h24.581c12.231,0,19.002,6.294,19.002,14.727,0,8.194-6.771,14.606-19.002,14.606h-6.769v5.817c0,11.878,1.425,13.896,9.382,13.896zm-2.613-44.771h-6.769v20.664h6.769c6.651,0,9.738-4.631,9.738-10.212,0-5.7-3.087-10.452-9.738-10.452z" fill="#464342"/><path id="path3087" d="m464.83,76.609-0.594,2.137c-1.068,3.919-2.376,5.344-10.807,5.344h-1.663c-6.174,0-7.243-1.425-7.243-9.856v-5.462c9.263,0,9.976,0.83,9.976,7.006h2.256v-17.695h-2.256c0,6.175-0.713,7.006-9.976,7.006v-13.299h6.53c8.433,0,9.738,1.425,10.807,5.344l0.595,2.255h1.899l-0.83-11.162h-34.914v2.255c6.649,0,7.719,1.425,7.719,9.857v15.201c0,7.713-0.908,9.656-6.151,9.933-4.983-0.761-8.404-3.479-13.085-8.627l-5.463-5.937c7.363-1.308,11.282-5.938,11.282-11.164,0-6.53-5.581-11.518-16.031-11.518h-20.9v2.255c6.649,0,7.718,1.425,7.718,9.857v15.201c0,8.431-1.068,9.975-7.718,9.975v2.256h23.632v-2.256c-6.649,0-7.719-1.544-7.719-9.975v-4.274h2.019l13.181,16.505h48.806l0.713-11.161h-1.783zm-62.34-11.164v-15.792h4.868c5.344,0,7.72,3.681,7.72,7.956,0,4.157-2.376,7.837-7.72,7.837h-4.868z" fill="#464342"/><path id="path3089" d="m488.94,89.314c-4.75,0-8.907-2.493-10.688-4.038-0.594,0.595-1.662,2.376-1.899,4.038h-2.257v-16.386h2.375c0.951,7.837,6.412,12.468,13.419,12.468,3.8,0,6.888-2.137,6.888-5.699,0-3.087-2.731-5.463-7.6-7.719l-6.769-3.206c-4.751-2.258-8.313-6.177-8.313-11.401,0-5.7,5.344-10.568,12.707-10.568,3.919,0,7.243,1.425,9.263,3.087,0.593-0.475,1.187-1.782,1.544-3.208h2.256v14.014h-2.494c-0.832-5.582-3.919-10.213-10.212-10.213-3.325,0-6.414,1.9-6.414,4.87,0,3.087,2.494,4.749,8.195,7.362l6.53,3.206c5.701,2.731,7.956,7.127,7.956,10.689,0,7.48-6.531,12.704-14.487,12.704z" fill="#464342"/><path id="path3091" d="m525.51,89.314c-4.751,0-8.908-2.493-10.688-4.038-0.594,0.595-1.662,2.376-1.899,4.038h-2.25v-16.386h2.375c0.95,7.837,6.412,12.468,13.419,12.468,3.8,0,6.888-2.137,6.888-5.699,0-3.087-2.731-5.463-7.601-7.719l-6.769-3.206c-4.75-2.258-8.313-6.177-8.313-11.401,0-5.7,5.344-10.568,12.707-10.568,3.919,0,7.243,1.425,9.263,3.087,0.593-0.475,1.187-1.782,1.542-3.208h2.257v14.014h-2.493c-0.832-5.582-3.919-10.213-10.212-10.213-3.325,0-6.414,1.9-6.414,4.87,0,3.087,2.494,4.749,8.195,7.362l6.53,3.206c5.701,2.731,7.956,7.127,7.956,10.689,0,7.48-6.531,12.704-14.486,12.704z" fill="#464342"/><path id="path3095" fill="#464342" d="m8.708,61.26c0,20.802,12.089,38.779,29.619,47.298l-25.069-68.688c-2.916,6.536-4.55,13.769-4.55,21.388z"/><path id="path3097" fill="#464342" d="m96.74,58.608c0-6.495-2.333-10.993-4.334-14.494-2.664-4.329-5.161-7.995-5.161-12.324,0-4.831,3.664-9.328,8.825-9.328,0.233,0,0.454,0.029,0.681,0.042-9.35-8.566-21.807-13.796-35.489-13.796-18.36,0-34.513,9.42-43.91,23.688,1.233,0.037,2.395,0.063,3.382,0.063,5.497,0,14.006-0.667,14.006-0.667,2.833-0.167,3.167,3.994,0.337,4.329,0,0-2.847,0.335-6.015,0.501l19.138,56.925,11.501-34.493-8.188-22.434c-2.83-0.166-5.511-0.501-5.511-0.501-2.832-0.166-2.5-4.496,0.332-4.329,0,0,8.679,0.667,13.843,0.667,5.496,0,14.006-0.667,14.006-0.667,2.835-0.167,3.168,3.994,0.337,4.329,0,0-2.853,0.335-6.015,0.501l18.992,56.494,5.242-17.517c2.272-7.269,4.001-12.49,4.001-16.989z"/><path id="path3099" fill="#464342" d="m62.184,65.857-15.768,45.819c4.708,1.384,9.687,2.141,14.846,2.141,6.12,0,11.989-1.058,17.452-2.979-0.141-0.225-0.269-0.464-0.374-0.724l-16.156-44.263z"/><path id="path3101" fill="#464342" d="m107.38,36.046c0.226,1.674,0.354,3.471,0.354,5.404,0,5.333-0.996,11.328-3.996,18.824l-16.053,46.413c15.624-9.111,26.133-26.038,26.133-45.426,0.001-9.137-2.333-17.729-6.438-25.215z"/><path id="path3103" fill="#464342" d="M61.262,0c-33.779,0-61.262,27.481-61.262,61.26,0,33.783,27.483,61.263,61.262,61.263,33.778,0,61.265-27.48,61.265-61.263,0-33.776-27.49-61.257-61.268-61.257zm0,119.72c-32.23,0-58.453-26.223-58.453-58.455,0-32.23,26.222-58.451,58.453-58.451,32.229,0,58.45,26.221,58.45,58.451,0,32.232-26.221,58.455-58.45,58.455z"/></g></svg>
